<svg xmlns="http://www.w3.org/2000/svg" viewBox="0 0 100 100" width="100" height="100">
<path d="M16.0,33.0 Q13.5,47.3 13.5,47.3 Q18.0,66.0 18.0,66.0" fill="none" stroke="#2B211A" stroke-width="11" stroke-linecap="round" stroke-linejoin="round" opacity="0.16"/>
<path d="M85.0,33.0 Q83.7,51.2 83.7,51.2 Q83.0,66.0 83.0,66.0" fill="none" stroke="#2B211A" stroke-width="11" stroke-linecap="round" stroke-linejoin="round" opacity="0.16"/>
<path d="M33.0,18.0 Q50.6,19.5 50.6,19.5 Q66.0,16.0 66.0,16.0" fill="none" stroke="#2B211A" stroke-width="11" stroke-linecap="round" stroke-linejoin="round" opacity="0.16"/>
<path d="M33.0,83.0 Q49.2,80.5 49.2,80.5 Q66.0,85.0 66.0,85.0" fill="none" stroke="#2B211A" stroke-width="11" stroke-linecap="round" stroke-linejoin="round" opacity="0.16"/>
<path d="M16.0,33.0 Q22.4,25.9 22.4,25.9 Q33.0,18.0 33.0,18.0" fill="none" stroke="#2B211A" stroke-width="11" stroke-linecap="round" stroke-linejoin="round" opacity="0.16"/>
<path d="M66.0,16.0 Q74.1,24.5 74.1,24.5 Q85.0,33.0 85.0,33.0" fill="none" stroke="#2B211A" stroke-width="11" stroke-linecap="round" stroke-linejoin="round" opacity="0.16"/>
<path d="M83.0,66.0 Q75.6,77.4 75.6,77.4 Q66.0,85.0 66.0,85.0" fill="none" stroke="#2B211A" stroke-width="11" stroke-linecap="round" stroke-linejoin="round" opacity="0.16"/>
<path d="M33.0,83.0 Q23.6,72.6 23.6,72.6 Q18.0,66.0 18.0,66.0" fill="none" stroke="#2B211A" stroke-width="11" stroke-linecap="round" stroke-linejoin="round" opacity="0.16"/>
<path d="M16.0,33.0 Q13.5,47.3 13.5,47.3 Q18.0,66.0 18.0,66.0" fill="none" stroke="#C1502E" stroke-width="9" stroke-linecap="round" stroke-linejoin="round"/>
<path d="M85.0,33.0 Q83.7,51.2 83.7,51.2 Q83.0,66.0 83.0,66.0" fill="none" stroke="#C1502E" stroke-width="9" stroke-linecap="round" stroke-linejoin="round"/>
<path d="M33.0,18.0 Q50.6,19.5 50.6,19.5 Q66.0,16.0 66.0,16.0" fill="none" stroke="#C1502E" stroke-width="9" stroke-linecap="round" stroke-linejoin="round"/>
<path d="M33.0,83.0 Q49.2,80.5 49.2,80.5 Q66.0,85.0 66.0,85.0" fill="none" stroke="#C1502E" stroke-width="9" stroke-linecap="round" stroke-linejoin="round"/>
<path d="M16.0,33.0 Q22.4,25.9 22.4,25.9 Q33.0,18.0 33.0,18.0" fill="none" stroke="#C1502E" stroke-width="9" stroke-linecap="round" stroke-linejoin="round"/>
<path d="M66.0,16.0 Q74.1,24.5 74.1,24.5 Q85.0,33.0 85.0,33.0" fill="none" stroke="#C1502E" stroke-width="9" stroke-linecap="round" stroke-linejoin="round"/>
<path d="M83.0,66.0 Q75.6,77.4 75.6,77.4 Q66.0,85.0 66.0,85.0" fill="none" stroke="#C1502E" stroke-width="9" stroke-linecap="round" stroke-linejoin="round"/>
<path d="M33.0,83.0 Q23.6,72.6 23.6,72.6 Q18.0,66.0 18.0,66.0" fill="none" stroke="#C1502E" stroke-width="9" stroke-linecap="round" stroke-linejoin="round"/>
</svg>